HIERARCHY
ROOT Hips
{
	OFFSET -3.958830 18.904000 13.208200
	CHANNELS 6 Xposition Yposition Zposition Zrotation Yrotation Xrotation 
	JOINT LHipJoint
	{
		OFFSET 0.000000 0.000000 0.000000
		CHANNELS 3 Zrotation Yrotation Xrotation
		JOINT LeftUpLeg
		{
			OFFSET 1.800000 -1.400000 0.085000
			CHANNELS 3 Zrotation Yrotation Xrotation
			JOINT LeftLeg
			{
				OFFSET 2.215000 -6.000000 0.000000
				CHANNELS 3 Zrotation Yrotation Xrotation
				JOINT LeftFoot
				{
					OFFSET 2.500000 -6.900000 0.000000
					CHANNELS 3 Zrotation Yrotation Xrotation
					JOINT LeftToeBase
					{
						OFFSET 0.200000 -0.500000 1.950000
						CHANNELS 3 Zrotation Yrotation Xrotation
						End Site
						{
							OFFSET 0.000000 0.000000 0.000000
						}
					}
				}
			}
		}
	}
	JOINT RHipJoint
	{
		OFFSET 0.000000 0.000000 0.000000
		CHANNELS 3 Zrotation Yrotation Xrotation
		JOINT RightUpLeg
		{
			OFFSET -1.800000 -1.400000 0.085000
			CHANNELS 3 Zrotation Yrotation Xrotation
			JOINT RightLeg
			{
				OFFSET -2.215000 -6.000000 0.000000
				CHANNELS 3 Zrotation Yrotation Xrotation
				JOINT RightFoot
				{
					OFFSET -2.500000 -6.900000 0.000000
					CHANNELS 3 Zrotation Yrotation Xrotation
					JOINT RightToeBase
					{
						OFFSET -0.200000 -0.500000 1.950000
						CHANNELS 3 Zrotation Yrotation Xrotation
						End Site
						{
							OFFSET 0.000000 0.000000 0.000000
						}
					}
				}
			}
		}
	}
	JOINT LowerBack
	{
		OFFSET 0.000000 0.000000 0.000000
		CHANNELS 3 Zrotation Yrotation Xrotation
		JOINT Spine
		{
			OFFSET -0.087000 1.940000 -0.288900
			CHANNELS 3 Zrotation Yrotation Xrotation
			JOINT Spine1
			{
				OFFSET 0.000000 1.950000 0.060000
				CHANNELS 3 Zrotation Yrotation Xrotation
				JOINT Neck
				{
					OFFSET 0.000000 0.000000 0.000000
					CHANNELS 3 Zrotation Yrotation Xrotation
					JOINT Neck1
					{
						OFFSET 0.000000 1.600000 0.340000
						CHANNELS 3 Zrotation Yrotation Xrotation
						JOINT Head
						{
							OFFSET 0.000000 1.667000 -0.240000
							CHANNELS 3 Zrotation Yrotation Xrotation
							End Site
							{
								OFFSET 0.000000 0.000000 0.000000
							}
						}
					}
				}
				JOINT LeftShoulder
				{
					OFFSET 0.000000 0.000000 0.000000
					CHANNELS 3 Zrotation Yrotation Xrotation
					JOINT LeftArm
					{
						OFFSET 2.700000 1.550000 -0.730000
						CHANNELS 3 Zrotation Yrotation Xrotation
						JOINT LeftForeArm
						{
							OFFSET 5.450000 0.000000 0.000000
							CHANNELS 3 Zrotation Yrotation Xrotation
							JOINT LeftHand
							{
								OFFSET 3.450000 0.000000 0.000000
								CHANNELS 3 Zrotation Yrotation Xrotation
								JOINT LeftHandIndex1
								{
									OFFSET 0.750000 0.000000 0.000000
									CHANNELS 3 Zrotation Yrotation Xrotation
									End Site
									{
										OFFSET 0.000000 0.000000 0.000000
									}
								}
							}
						}
					}
				}
				JOINT RightShoulder
				{
					OFFSET 0.000000 0.000000 0.000000
					CHANNELS 3 Zrotation Yrotation Xrotation
					JOINT RightArm
					{
						OFFSET -2.700000 1.550000 -0.730000
						CHANNELS 3 Zrotation Yrotation Xrotation
						JOINT RightForeArm
						{
							OFFSET -5.450000 0.000000 0.000000
							CHANNELS 3 Zrotation Yrotation Xrotation
							JOINT RightHand
							{
								OFFSET -3.450000 0.000000 0.000000
								CHANNELS 3 Zrotation Yrotation Xrotation
								JOINT RightHandIndex1
								{
									OFFSET -0.750000 0.000000 0.000000
									CHANNELS 3 Zrotation Yrotation Xrotation
									End Site
									{
										OFFSET 0.000000 0.000000 0.000000
									}
								}
							}
						}
					}
				}
			}
		}
	}
}
MOTION
Frames: 14
Frame Time: 0.016667
-1.602870 14.620560 -5.642410 -31.824327 18.955499 25.108617 -16.152749 9.773963 6.334640 -0.219374 -23.917888 -54.843969 -32.865286 25.200063 53.104954 1.641655 13.451349 0.104836 1.239890 1.048950 1.322540 18.307104 -5.834710 4.324983 15.259367 15.577660 -46.766979 -65.881606 22.927004 48.042410 -3.129880 -13.791528 -0.012427 0.528020 0.091410 0.534700 -1.966030 -5.397839 -10.151599 4.711920 3.821819 64.877025 9.291007 1.728720 22.631813 0.342518 7.725882 -7.448819 10.889229 2.046592 37.125738 -3.179420 10.084370 -17.889230 6.179463 -22.657926 -3.670347 8.361156 -37.189168 -0.731375 5.292520 5.525113 -1.922232 -4.512640 2.553687 0.398530 0.284880 0.255410 0.052490 -8.905175 19.194014 8.379041 18.144704 18.717968 -3.063030 -27.647972 4.050312 -4.216202 2.293576 -1.890956 0.196010 0.147330 -0.400430 -0.263390 
-1.628960 14.678160 -5.655490 -28.959383 20.133927 27.557666 -16.246675 9.879019 6.412166 -1.735316 -25.264270 -55.310073 -32.912436 24.964786 52.935737 1.695399 13.321489 0.160242 1.311040 1.117900 1.360660 18.229707 -5.731413 4.199352 12.942185 14.851238 -48.440347 -64.026881 22.872608 49.480543 -3.146574 -13.804822 -0.034162 0.571950 0.015330 0.554000 -1.734245 -5.885186 -10.180201 2.971770 4.899765 64.044399 11.083211 1.208102 22.018865 -0.142573 8.271484 -7.563992 11.711511 1.979843 37.262035 -3.219080 10.435610 -17.861510 6.342669 -23.748022 -3.724120 8.725590 -36.665440 -1.258101 5.765779 5.530591 -1.918230 -4.449353 2.636821 0.391140 0.253180 0.301370 0.093730 -8.089284 20.236348 7.952557 17.278936 18.940982 -5.674680 -32.474154 7.531328 -6.178251 2.221023 -2.032785 0.236550 0.088820 -0.477110 -0.270750 
-1.651340 14.729830 -5.669270 -27.557424 21.434809 29.588581 -16.264359 9.841148 6.477755 -1.875936 -25.907403 -56.216184 -32.676405 24.877558 53.319939 1.683870 13.315049 0.149100 1.323650 1.169380 1.303530 18.224766 -5.713803 4.158165 11.638880 14.611971 -49.353372 -61.977282 23.174202 52.393833 -3.208475 -14.079121 -0.105173 0.627740 -0.012910 0.535040 -1.713579 -5.922227 -10.213647 3.247472 4.724252 63.330894 11.775943 0.849185 21.618456 -0.498145 8.373482 -7.624801 11.823874 1.640860 37.619457 -2.782580 9.959900 -18.197300 7.075809 -24.518651 -3.781054 8.258608 -36.422407 -1.387949 7.121264 5.403263 -1.945118 -4.415104 2.667329 0.400810 0.231680 0.321820 0.126570 -7.997811 21.071614 7.544567 17.059349 19.604669 -7.407647 -35.630543 9.019125 -7.501956 2.166901 -2.092483 0.228000 0.095780 -0.489280 -0.263010 
-1.630930 14.819340 -5.665570 -27.896924 20.610792 30.421111 -16.240242 9.896423 6.432751 -1.945881 -24.625351 -56.210965 -31.560640 24.234090 52.671217 1.573865 12.996710 0.207311 1.357700 1.213830 1.293540 18.232166 -5.790270 4.206262 11.830508 14.934899 -48.147864 -57.695225 22.155511 53.550245 -3.103191 -13.579709 -0.000251 0.666780 -0.065760 0.508480 -1.783582 -5.768453 -10.169328 3.219834 5.529862 63.651231 11.819612 1.594628 21.841757 -0.926317 7.966615 -8.041849 11.045453 1.530013 38.569308 -1.925290 9.376460 -18.934810 6.581301 -26.042530 -3.637183 9.875855 -35.072284 -2.516295 7.774746 5.510326 -2.008414 -4.372358 2.650112 0.440370 0.175040 0.353790 0.146740 -6.905663 23.429702 7.532678 14.044418 19.753573 -9.293852 -36.982285 9.506421 -8.184243 2.172933 -2.119596 0.223550 0.098140 -0.514650 -0.267820 
-1.611990 14.900620 -5.675380 -27.026418 21.689676 31.839359 -16.192097 9.871841 6.536035 -3.492388 -25.154192 -56.031643 -28.396707 22.773630 53.738685 1.492433 12.630059 0.290525 1.393250 1.256770 1.284790 18.263549 -6.047434 4.065577 10.901690 14.005800 -47.678053 -52.390998 20.809149 57.016071 -3.031291 -13.293772 0.047353 0.689330 -0.131220 0.496270 -1.952926 -5.421376 -10.125636 4.574155 4.347527 63.961703 10.961851 1.116786 21.386341 -1.161070 7.535968 -8.597344 10.263607 1.552177 39.900419 -0.980550 8.929870 -19.299600 6.218253 -27.987620 -3.493364 11.971810 -33.439899 -3.836430 8.020734 5.335551 -2.043408 -4.308971 2.663769 0.466610 0.113660 0.391380 0.169220 -5.908027 25.338625 7.215451 12.200775 20.489048 -10.834913 -38.231142 10.416500 -8.943137 2.196504 -2.159138 0.242940 0.064060 -0.554290 -0.262760 
-1.581370 15.011420 -5.679440 -26.941364 21.799370 32.684318 -16.107824 9.876880 6.572342 -5.450868 -24.620938 -55.246173 -24.440342 20.766156 53.951037 1.308044 11.975867 0.432890 1.448060 1.289240 1.321630 18.312718 -6.368990 3.981579 10.324743 13.584197 -45.920868 -46.850495 19.206716 60.360186 -2.938571 -12.851827 0.113027 0.709750 -0.225070 0.481210 -2.197618 -4.902045 -10.036779 6.249839 3.457976 64.830042 9.434829 1.261828 21.330891 -1.271069 6.697153 -9.285634 8.651124 1.522837 41.559945 0.335220 8.109890 -19.977250 6.757093 -29.731413 -3.394398 14.031631 -31.598239 -4.993775 8.207146 4.796096 -2.092853 -4.222839 2.679221 0.517470 0.021880 0.435710 0.168870 -6.246495 27.591437 6.973039 10.215262 21.527061 -11.846948 -37.838401 9.689760 -8.814826 2.284902 -2.200016 0.260700 0.022320 -0.593430 -0.278150 
-1.554100 15.143420 -5.682570 -28.034307 20.277410 33.398930 -16.042729 10.013109 6.474843 -6.667096 -22.648017 -54.885596 -21.555050 18.939241 52.199378 1.095835 11.087236 0.659614 1.472320 1.309030 1.318140 18.329467 -6.572925 4.046448 10.063808 14.192019 -43.369003 -41.002326 17.481389 63.876370 -2.854160 -12.332134 0.248792 0.696100 -0.289920 0.449070 -2.351501 -4.613859 -9.946216 6.515869 4.307768 66.415423 8.771602 2.495360 20.467089 -1.772155 5.132533 -9.816736 5.333129 1.956540 43.386435 2.249960 7.029330 -21.707580 6.800235 -30.475756 -3.022013 15.350260 -30.094047 -5.883388 9.124008 4.189410 -2.099802 -4.099478 2.683416 0.583370 -0.078530 0.487970 0.180910 -5.546363 29.960548 6.485658 5.783063 21.359350 -13.755756 -36.940044 14.169652 -9.534010 2.275090 -2.107610 0.276460 0.023510 -0.619520 -0.267680 
-1.481640 15.299550 -5.702460 -28.414596 19.091142 34.891825 -15.936594 10.047954 6.439071 -8.623906 -21.392117 -54.670968 -18.303338 16.510859 49.628667 0.871944 9.875646 1.011842 1.495620 1.317160 1.337790 18.383722 -6.859950 4.083318 8.535911 14.527428 -42.265676 -34.641967 14.602838 66.741531 -2.703387 -11.567619 0.445605 0.652070 -0.367890 0.425070 -2.621232 -4.072793 -9.871592 7.585244 4.008340 68.453023 6.670275 3.156089 18.767968 -1.834610 3.423037 -10.842795 1.729009 2.953974 45.193924 4.257320 6.432870 -23.658250 7.037758 -31.889604 -2.643085 17.409536 -27.938692 -7.117501 9.699826 3.582883 -2.094529 -3.977468 2.671710 0.647670 -0.189260 0.554110 0.191570 -5.560335 32.507052 5.963909 2.766113 21.235187 -15.731131 -36.669271 17.566858 -10.044182 2.317391 -2.051211 0.311570 0.005980 -0.662430 -0.255990 
-1.417390 15.415860 -5.746090 -29.286821 17.931918 36.604688 -15.817763 9.952469 6.464501 -10.736552 -20.473680 -55.748790 -14.035090 13.797827 47.503166 0.600555 8.642195 1.382484 1.505270 1.342890 1.317700 18.466035 -7.118315 4.146252 7.552378 14.921118 -41.564017 -27.690497 10.537037 67.532330 -2.434614 -10.500247 0.728759 0.647960 -0.401510 0.385950 -2.927702 -3.358240 -9.802846 9.010841 3.444041 69.261911 4.301361 4.077340 17.401000 -1.708802 1.911988 -11.354114 -1.235579 3.813274 45.499014 5.706690 5.888390 -24.822830 7.532676 -32.662790 -2.427807 19.184346 -27.141471 -8.171853 10.569057 3.217874 -2.112340 -3.917132 2.668747 0.669310 -0.249100 0.575600 0.207900 -6.169229 34.467485 5.021558 0.437736 21.892164 -16.876746 -36.087865 19.256179 -10.138551 2.359478 -2.028952 0.321490 0.012650 -0.686090 -0.238390 
-1.342970 15.555420 -5.780540 -29.637805 17.121971 38.672603 -15.698187 9.809676 6.498821 -13.572594 -19.872683 -56.676285 -9.817843 11.131044 45.033597 0.341975 7.379542 1.747714 1.574210 1.425250 1.346510 18.555161 -7.343065 4.214938 6.682614 15.288173 -41.221854 -19.502813 5.379942 67.224259 -2.167745 -9.437781 0.979254 0.683370 -0.473930 0.389350 -3.234193 -2.604384 -9.740332 10.327106 2.637367 69.745030 1.468033 4.718143 16.396877 -1.336369 0.753919 -11.567610 -3.211369 4.541565 45.218430 6.959540 5.607190 -26.204570 8.387912 -33.566551 -2.302726 21.301247 -26.397266 -9.795035 12.750710 2.865986 -2.278980 -3.892503 2.750007 0.680630 -0.312340 0.623770 0.221160 -7.609569 36.197063 3.214967 -1.926921 23.749236 -16.864353 -34.606990 17.604246 -9.268979 2.477664 -2.059946 0.368000 -0.028810 -0.732630 -0.224620 
-1.296190 15.696420 -5.795520 -28.863383 15.412771 41.100208 -15.702517 9.820255 6.664422 -16.469174 -19.982342 -58.452070 -5.440139 9.289126 44.823853 0.209551 6.737396 1.920398 1.588500 1.417800 1.355310 18.532719 -7.450452 4.102855 5.984047 14.853876 -40.260588 -14.539248 2.629019 62.433865 -1.876086 -8.216520 1.310397 0.659560 -0.542650 0.392660 -3.228211 -2.491523 -9.704594 8.616614 4.349167 70.458012 0.702569 5.836067 14.780480 -1.033526 -0.127538 -12.298784 -4.952900 5.292758 46.392299 8.097680 5.604000 -27.391530 10.041052 -34.383417 -2.203937 21.951875 -25.188837 -10.162912 13.633914 2.156368 -2.284652 -3.832276 2.796229 0.736930 -0.375860 0.659230 0.209590 -9.572230 38.488280 1.180204 -4.677091 25.016334 -16.318186 -32.076722 14.223280 -7.578761 2.627121 -2.029852 0.385870 -0.080530 -0.743650 -0.240340 
-1.262770 15.804320 -5.800550 -27.209544 13.982093 43.168621 -15.742185 9.897459 6.959199 -18.952264 -20.763377 -60.071822 -1.143638 7.825311 46.605098 0.229593 6.622360 1.948827 1.546730 1.393040 1.304900 18.471086 -7.677334 3.721022 5.930945 13.010901 -38.063036 -12.419980 1.599472 55.370671 -1.571906 -6.848545 1.730083 0.613430 -0.561650 0.381310 -3.137960 -2.536790 -9.637767 6.540747 6.029966 71.232746 0.632331 6.554798 12.907045 -0.768761 -0.842301 -12.945607 -6.515066 5.878788 47.974160 8.929120 5.543150 -28.201580 11.309212 -35.522053 -2.284773 22.356969 -24.401269 -10.187612 13.312903 1.383643 -2.146912 -3.772219 2.776693 0.764750 -0.413850 0.687310 0.209870 -10.934681 40.776333 -0.886984 -7.012044 25.746075 -15.702975 -29.153808 12.425954 -6.194447 2.739568 -1.931158 0.395460 -0.089970 -0.735980 -0.222560 
-1.220740 15.890650 -5.817210 -26.095555 12.389297 45.063627 -15.749554 9.908433 7.239771 -20.293628 -21.509198 -62.622136 2.789932 6.517967 49.075761 0.298951 6.815157 1.859582 1.540020 1.379470 1.303400 18.445540 -7.944458 3.359215 6.300227 11.151334 -35.870484 -11.352183 1.149787 47.752988 -1.299020 -5.452313 2.149441 0.571150 -0.592990 0.408440 -3.126379 -2.358953 -9.562922 5.150685 7.381987 71.805331 0.126213 7.410959 11.290358 -0.518178 -1.380530 -13.263598 -7.660429 6.028399 49.046332 9.928930 5.238610 -29.342480 12.985906 -36.299855 -2.649272 22.821390 -24.446986 -9.858953 11.966620 0.952625 -1.976312 -3.717452 2.760435 0.790200 -0.454750 0.727330 0.197500 -12.760407 42.391489 -3.088511 -8.598963 26.168886 -15.112812 -26.756147 11.186614 -5.170826 2.843827 -1.865418 0.432460 -0.125280 -0.732930 -0.209190 
-1.211720 15.937330 -5.841420 -24.372287 9.645276 46.601828 -15.811627 9.995674 7.583139 -20.174385 -22.842903 -66.128161 4.802260 6.388460 53.207295 0.465071 7.562577 1.615053 1.495880 1.316100 1.297420 18.370555 -8.199146 2.861843 5.313148 8.844847 -33.552365 -10.672581 0.801768 40.875312 -1.066955 -4.231736 2.580412 0.504150 -0.624490 0.374250 -2.963081 -2.481362 -9.498178 1.760297 10.492328 72.421519 0.659191 8.388963 8.833483 -0.195763 -1.460298 -13.908694 -8.057026 5.981481 51.791635 11.117850 5.244510 -30.694380 14.397225 -37.320495 -2.995300 23.258251 -24.213373 -9.693455 11.059764 -0.115852 -1.781204 -3.620152 2.680579 0.858980 -0.508450 0.755750 0.185320 -14.142366 44.259741 -5.103676 -9.192025 26.707829 -14.305195 -24.333460 10.027060 -4.178228 2.921305 -1.736046 0.412490 -0.115780 -0.733810 -0.227560 
